<svg width="129" height="39" viewBox="0 0 129 39" fill="none" xmlns="http://www.w3.org/2000/svg">
<path d="M0 10C0 4.47715 4.47715 0 10 0H119C124.523 0 129 4.47715 129 10V29C129 34.5228 124.523 39 119 39H10C4.47715 39 0 34.5228 0 29V10Z" fill="white"/>
<rect x="5" y="5" width="29" height="29" rx="8" fill="#DC6DFF"/>
<path d="M13.3334 24.7756V21.07L17.7867 23.6267C18.4603 24.0135 19.2234 24.217 20.0001 24.217C20.7768 24.217 21.5399 24.0135 22.2134 23.6267L26.6668 21.0711V24.7756C26.6669 24.8486 26.6527 24.9209 26.6248 24.9884C26.597 25.0559 26.5561 25.1172 26.5046 25.1689L26.5024 25.17L26.5001 25.1734L26.4924 25.18L26.4668 25.2045L26.3779 25.2867C26.2693 25.382 26.1578 25.4739 26.0435 25.5623C25.6444 25.8687 25.2203 26.1411 24.7757 26.3767C23.3052 27.1568 21.6647 27.5613 20.0001 27.5545C18.3355 27.5613 16.695 27.1568 15.2245 26.3767C14.7803 26.1411 14.3565 25.8687 13.9578 25.5623C13.8112 25.4492 13.6696 25.3299 13.5334 25.2045L13.5078 25.18C13.4534 25.1276 13.4099 25.0648 13.3799 24.9953C13.35 24.9259 13.3342 24.8512 13.3334 24.7756ZM29.7213 18.0355L21.6601 22.6633C21.155 22.9534 20.5826 23.1061 20.0001 23.1061C19.4176 23.1061 18.8452 22.9534 18.3401 22.6633L11.1111 18.5133V23.6645C11.1111 23.8118 11.0526 23.9531 10.9484 24.0573C10.8442 24.1615 10.7029 24.22 10.5556 24.22C10.4082 24.22 10.2669 24.1615 10.1627 24.0573C10.0585 23.9531 10 23.8118 10 23.6645V17.5533C9.99994 17.4531 10.027 17.3548 10.0782 17.2688C10.1295 17.1827 10.203 17.1121 10.2911 17.0644L18.3401 12.4433C18.8451 12.1528 19.4175 12 20.0001 12C20.5827 12 21.1551 12.1528 21.6601 12.4433L29.7213 17.0722C29.806 17.1209 29.8764 17.191 29.9253 17.2756C29.9742 17.3602 30 17.4562 30 17.5539C30 17.6516 29.9742 17.7475 29.9253 17.8321C29.8764 17.9167 29.806 17.9868 29.7213 18.0355Z" fill="white"/>
<path d="M50.1406 12.1562H55.0859V13.75H52.1641V17.7422H54.4219V19.3359H52.1641V23.9062H55.1641V25.5H50.1406V12.1562ZM58.5625 25.625C58.4427 25.625 58.3021 25.612 58.1406 25.5859C57.9792 25.5651 57.8125 25.513 57.6406 25.4297C57.4688 25.3464 57.2995 25.2214 57.1328 25.0547C56.9661 24.888 56.8177 24.6615 56.6875 24.375C56.5573 24.0833 56.4505 23.724 56.3672 23.2969C56.2891 22.8698 56.25 22.3516 56.25 21.7422V18.3281C56.25 17.724 56.2917 17.2135 56.375 16.7969C56.4635 16.3802 56.5781 16.0365 56.7188 15.7656C56.8594 15.4896 57.0156 15.276 57.1875 15.125C57.3646 14.9688 57.5391 14.8542 57.7109 14.7812C57.888 14.7083 58.0547 14.6641 58.2109 14.6484C58.3724 14.6328 58.5052 14.625 58.6094 14.625C58.8021 14.625 58.9844 14.651 59.1562 14.7031C59.3281 14.7552 59.4844 14.8255 59.625 14.9141C59.7656 14.9974 59.8906 15.0938 60 15.2031C60.1094 15.3073 60.2005 15.4141 60.2734 15.5234L60.2812 15.5156L60.2188 14.1562V11.2891H62.1875V25.5H60.6484L60.4766 24.5C60.388 24.6406 60.2865 24.7786 60.1719 24.9141C60.0573 25.0495 59.9219 25.1719 59.7656 25.2812C59.6094 25.3854 59.4323 25.4688 59.2344 25.5312C59.0365 25.5938 58.8125 25.625 58.5625 25.625ZM59.2344 24.0938C59.3646 24.0938 59.4792 24.0729 59.5781 24.0312C59.6823 23.9844 59.7734 23.9271 59.8516 23.8594C59.9349 23.7865 60.0052 23.7031 60.0625 23.6094C60.125 23.5156 60.1771 23.4193 60.2188 23.3203V16.8516C60.1198 16.6328 59.987 16.4479 59.8203 16.2969C59.6589 16.1406 59.4609 16.0625 59.2266 16.0625C59.0807 16.0625 58.9479 16.0885 58.8281 16.1406C58.7083 16.1927 58.6042 16.2917 58.5156 16.4375C58.4271 16.5781 58.3568 16.776 58.3047 17.0312C58.2578 17.2812 58.2344 17.6068 58.2344 18.0078V22.1328C58.2344 22.5339 58.2578 22.862 58.3047 23.1172C58.3568 23.3724 58.4271 23.5729 58.5156 23.7188C58.6042 23.8594 58.7083 23.9583 58.8281 24.0156C58.9531 24.0677 59.0885 24.0938 59.2344 24.0938ZM64.2344 14.7422H66.2109V22.8281C66.2109 23.3021 66.2839 23.6328 66.4297 23.8203C66.5755 24.0026 66.7891 24.0938 67.0703 24.0938C67.2682 24.0938 67.4609 24.0391 67.6484 23.9297C67.8359 23.8203 68.0052 23.6641 68.1562 23.4609V14.7422H70.1328V25.5H68.625L68.4297 24.3516H68.4219C68.2656 24.5964 68.099 24.8021 67.9219 24.9688C67.75 25.1302 67.5677 25.2604 67.375 25.3594C67.1875 25.4531 66.9948 25.5208 66.7969 25.5625C66.599 25.6042 66.401 25.625 66.2031 25.625C65.5729 25.625 65.0859 25.4062 64.7422 24.9688C64.4036 24.5312 64.2344 23.8698 64.2344 22.9844V14.7422ZM74.7109 25.6172C73.8047 25.6172 73.112 25.2448 72.6328 24.5C72.1589 23.7552 71.9219 22.6198 71.9219 21.0938V19.0625C71.9219 18.3802 71.9714 17.7969 72.0703 17.3125C72.1693 16.8229 72.2995 16.4141 72.4609 16.0859C72.6276 15.7526 72.8151 15.4896 73.0234 15.2969C73.237 15.1042 73.4557 14.9583 73.6797 14.8594C73.9036 14.7552 74.125 14.6901 74.3438 14.6641C74.5625 14.6328 74.763 14.6172 74.9453 14.6172C75.3099 14.6172 75.6432 14.6667 75.9453 14.7656C76.2474 14.8594 76.5078 15.0052 76.7266 15.2031C76.9453 15.3958 77.1146 15.6406 77.2344 15.9375C77.3542 16.2344 77.4141 16.5833 77.4141 16.9844C77.4141 17.2344 77.401 17.4505 77.375 17.6328C77.3542 17.8099 77.3229 17.9818 77.2812 18.1484H75.7031V17.7891C75.7031 17.2474 75.638 16.8255 75.5078 16.5234C75.3828 16.2161 75.1745 16.0625 74.8828 16.0625C74.7214 16.0625 74.5807 16.1016 74.4609 16.1797C74.3411 16.2526 74.2396 16.3802 74.1562 16.5625C74.0781 16.7448 74.0182 16.9896 73.9766 17.2969C73.9401 17.6042 73.9219 17.9896 73.9219 18.4531V21.5078C73.9219 21.9766 73.9375 22.375 73.9688 22.7031C74 23.0312 74.0547 23.2995 74.1328 23.5078C74.2109 23.7109 74.3151 23.8594 74.4453 23.9531C74.5755 24.0469 74.737 24.0938 74.9297 24.0938C75.0286 24.0938 75.125 24.0703 75.2188 24.0234C75.3125 23.9714 75.3932 23.888 75.4609 23.7734C75.5339 23.6589 75.5911 23.5078 75.6328 23.3203C75.6797 23.1276 75.7031 22.8906 75.7031 22.6094V22.2734H77.4062V22.6875C77.4062 23.7083 77.1797 24.4531 76.7266 24.9219C76.2786 25.3854 75.6068 25.6172 74.7109 25.6172ZM80.5 25.6172C80.1667 25.6172 79.8698 25.5521 79.6094 25.4219C79.3542 25.2865 79.138 25.1042 78.9609 24.875C78.7839 24.6458 78.6484 24.375 78.5547 24.0625C78.4661 23.7448 78.4219 23.401 78.4219 23.0312C78.4219 22.5885 78.4766 22.1953 78.5859 21.8516C78.6953 21.5078 78.8542 21.1979 79.0625 20.9219C79.276 20.6458 79.5391 20.3958 79.8516 20.1719C80.1641 19.9427 80.526 19.7266 80.9375 19.5234C81.1354 19.4245 81.3568 19.3255 81.6016 19.2266C81.8516 19.1224 82.0729 19.0339 82.2656 18.9609V17.5391C82.2656 17.3307 82.2578 17.138 82.2422 16.9609C82.2266 16.7786 82.1875 16.6224 82.125 16.4922C82.0677 16.3568 81.9792 16.2526 81.8594 16.1797C81.7396 16.1016 81.5755 16.0625 81.3672 16.0625C81.2266 16.0625 81.0885 16.0885 80.9531 16.1406C80.8229 16.1927 80.7057 16.2812 80.6016 16.4062C80.5026 16.5312 80.4219 16.6979 80.3594 16.9062C80.3021 17.1146 80.2734 17.3724 80.2734 17.6797V18.1484H78.7656C78.7188 17.9453 78.6823 17.7604 78.6562 17.5938C78.6354 17.4219 78.625 17.2526 78.625 17.0859C78.625 16.6849 78.6927 16.3307 78.8281 16.0234C78.9688 15.7161 79.1615 15.4583 79.4062 15.25C79.6562 15.0417 79.9531 14.8854 80.2969 14.7812C80.6406 14.6719 81.0182 14.6172 81.4297 14.6172C81.9661 14.6172 82.4115 14.6771 82.7656 14.7969C83.1198 14.9115 83.401 15.0859 83.6094 15.3203C83.8229 15.5547 83.9714 15.849 84.0547 16.2031C84.1432 16.5573 84.1875 16.9714 84.1875 17.4453V25.5H82.7188L82.5781 24.5781C82.3646 24.8854 82.0781 25.1354 81.7188 25.3281C81.3646 25.5208 80.9583 25.6172 80.5 25.6172ZM81.375 24.0938C81.5417 24.0938 81.7031 24.0521 81.8594 23.9688C82.0208 23.8802 82.1562 23.7734 82.2656 23.6484V20.2812C82.1615 20.3229 82.0443 20.3724 81.9141 20.4297C81.7839 20.487 81.6432 20.5625 81.4922 20.6562C81.3516 20.7448 81.2135 20.8516 81.0781 20.9766C80.9427 21.1016 80.8203 21.25 80.7109 21.4219C80.6068 21.5938 80.5208 21.7891 80.4531 22.0078C80.3906 22.2214 80.3594 22.4609 80.3594 22.7266C80.3594 23.138 80.4401 23.4688 80.6016 23.7188C80.763 23.9688 81.0208 24.0938 81.375 24.0938ZM86.4609 16.1484H85.625V14.7422H86.6328L87.0312 11.9531H88.4375V14.7422H90.1562V16.1484H88.4375V22.9922C88.4375 23.2266 88.4583 23.4167 88.5 23.5625C88.5469 23.7031 88.6094 23.8151 88.6875 23.8984C88.7656 23.9766 88.8568 24.0286 88.9609 24.0547C89.0651 24.0807 89.1745 24.0938 89.2891 24.0938C89.4818 24.0938 89.651 24.0703 89.7969 24.0234C89.9479 23.9766 90.0911 23.9115 90.2266 23.8281V24.9219C90.112 25.0625 89.987 25.1771 89.8516 25.2656C89.7214 25.3542 89.5859 25.4271 89.4453 25.4844C89.3047 25.5365 89.1615 25.5729 89.0156 25.5938C88.8698 25.6146 88.7266 25.625 88.5859 25.625C88.3099 25.625 88.0443 25.5885 87.7891 25.5156C87.5339 25.4427 87.3073 25.3047 87.1094 25.1016C86.9115 24.8932 86.7526 24.6068 86.6328 24.2422C86.5182 23.8776 86.4609 23.4036 86.4609 22.8203V16.1484ZM92.5703 13.2031C92.2057 13.2031 91.9167 13.0938 91.7031 12.875C91.4948 12.6562 91.3906 12.3359 91.3906 11.9141C91.3906 11.6797 91.4167 11.4844 91.4688 11.3281C91.526 11.1667 91.6042 11.0391 91.7031 10.9453C91.8073 10.8464 91.9323 10.776 92.0781 10.7344C92.224 10.6875 92.3906 10.6641 92.5781 10.6641C92.9688 10.6641 93.2656 10.763 93.4688 10.9609C93.6719 11.1589 93.7734 11.4766 93.7734 11.9141C93.7734 12.3203 93.6693 12.638 93.4609 12.8672C93.2578 13.0911 92.9609 13.2031 92.5703 13.2031ZM91.5469 14.7422H93.5234V25.5H91.5469V14.7422ZM98.3047 25.6172C98.0755 25.6172 97.8411 25.599 97.6016 25.5625C97.3672 25.526 97.138 25.4505 96.9141 25.3359C96.6953 25.2214 96.487 25.0573 96.2891 24.8438C96.0964 24.6302 95.9271 24.349 95.7812 24C95.6354 23.651 95.5208 23.2214 95.4375 22.7109C95.3542 22.2005 95.3125 21.5911 95.3125 20.8828V19.1953C95.3125 18.4974 95.3542 17.901 95.4375 17.4062C95.526 16.9062 95.6432 16.487 95.7891 16.1484C95.9401 15.8099 96.1146 15.5417 96.3125 15.3438C96.5104 15.1406 96.7188 14.987 96.9375 14.8828C97.1615 14.7734 97.3906 14.7031 97.625 14.6719C97.8594 14.6354 98.0885 14.6172 98.3125 14.6172C98.526 14.6172 98.7474 14.6328 98.9766 14.6641C99.2057 14.6953 99.4297 14.763 99.6484 14.8672C99.8672 14.9661 100.073 15.1172 100.266 15.3203C100.464 15.5182 100.635 15.7865 100.781 16.125C100.932 16.4635 101.049 16.8854 101.133 17.3906C101.221 17.8906 101.266 18.4922 101.266 19.1953V20.8828C101.266 21.5807 101.221 22.1823 101.133 22.6875C101.044 23.1927 100.924 23.6198 100.773 23.9688C100.622 24.3177 100.448 24.6016 100.25 24.8203C100.052 25.0339 99.8438 25.2005 99.625 25.3203C99.4062 25.4401 99.1823 25.5182 98.9531 25.5547C98.7292 25.5964 98.513 25.6172 98.3047 25.6172ZM98.3203 24.0938C98.4974 24.0938 98.6458 24.0495 98.7656 23.9609C98.8906 23.8672 98.9896 23.7161 99.0625 23.5078C99.1406 23.2995 99.1953 23.026 99.2266 22.6875C99.263 22.3438 99.2812 21.9193 99.2812 21.4141V18.7656C99.2812 18.2604 99.263 17.8359 99.2266 17.4922C99.1953 17.1484 99.1406 16.8724 99.0625 16.6641C98.9896 16.4505 98.8906 16.2969 98.7656 16.2031C98.6458 16.1094 98.4974 16.0625 98.3203 16.0625C98.1328 16.0625 97.974 16.1094 97.8438 16.2031C97.7188 16.2969 97.6146 16.4505 97.5312 16.6641C97.4479 16.8724 97.388 17.1484 97.3516 17.4922C97.3151 17.8359 97.2969 18.2604 97.2969 18.7656V21.4141C97.2969 21.9193 97.3151 22.3438 97.3516 22.6875C97.388 23.026 97.4479 23.2995 97.5312 23.5078C97.6146 23.7161 97.7188 23.8672 97.8438 23.9609C97.974 24.0495 98.1328 24.0938 98.3203 24.0938ZM103.016 14.7422H104.539L104.719 15.8906V15.8984C104.875 15.6536 105.042 15.4505 105.219 15.2891C105.401 15.1224 105.589 14.9896 105.781 14.8906C105.974 14.7917 106.169 14.7214 106.367 14.6797C106.57 14.638 106.771 14.6172 106.969 14.6172C107.599 14.6172 108.083 14.8385 108.422 15.2812C108.766 15.7188 108.938 16.3776 108.938 17.2578V25.5H106.961V17.3281C106.961 16.8542 106.888 16.526 106.742 16.3438C106.596 16.1562 106.383 16.0625 106.102 16.0625C105.904 16.0625 105.706 16.1276 105.508 16.2578C105.315 16.388 105.143 16.5677 104.992 16.7969V25.5H103.016V14.7422ZM112.469 25.6172C112.135 25.6172 111.839 25.5521 111.578 25.4219C111.323 25.2865 111.107 25.1042 110.93 24.875C110.753 24.6458 110.617 24.375 110.523 24.0625C110.435 23.7448 110.391 23.401 110.391 23.0312C110.391 22.5885 110.445 22.1953 110.555 21.8516C110.664 21.5078 110.823 21.1979 111.031 20.9219C111.245 20.6458 111.508 20.3958 111.82 20.1719C112.133 19.9427 112.495 19.7266 112.906 19.5234C113.104 19.4245 113.326 19.3255 113.57 19.2266C113.82 19.1224 114.042 19.0339 114.234 18.9609V17.5391C114.234 17.3307 114.227 17.138 114.211 16.9609C114.195 16.7786 114.156 16.6224 114.094 16.4922C114.036 16.3568 113.948 16.2526 113.828 16.1797C113.708 16.1016 113.544 16.0625 113.336 16.0625C113.195 16.0625 113.057 16.0885 112.922 16.1406C112.792 16.1927 112.674 16.2812 112.57 16.4062C112.471 16.5312 112.391 16.6979 112.328 16.9062C112.271 17.1146 112.242 17.3724 112.242 17.6797V18.1484H110.734C110.688 17.9453 110.651 17.7604 110.625 17.5938C110.604 17.4219 110.594 17.2526 110.594 17.0859C110.594 16.6849 110.661 16.3307 110.797 16.0234C110.938 15.7161 111.13 15.4583 111.375 15.25C111.625 15.0417 111.922 14.8854 112.266 14.7812C112.609 14.6719 112.987 14.6172 113.398 14.6172C113.935 14.6172 114.38 14.6771 114.734 14.7969C115.089 14.9115 115.37 15.0859 115.578 15.3203C115.792 15.5547 115.94 15.849 116.023 16.2031C116.112 16.5573 116.156 16.9714 116.156 17.4453V25.5H114.688L114.547 24.5781C114.333 24.8854 114.047 25.1354 113.688 25.3281C113.333 25.5208 112.927 25.6172 112.469 25.6172ZM113.344 24.0938C113.51 24.0938 113.672 24.0521 113.828 23.9688C113.99 23.8802 114.125 23.7734 114.234 23.6484V20.2812C114.13 20.3229 114.013 20.3724 113.883 20.4297C113.753 20.487 113.612 20.5625 113.461 20.6562C113.32 20.7448 113.182 20.8516 113.047 20.9766C112.911 21.1016 112.789 21.25 112.68 21.4219C112.576 21.5938 112.49 21.7891 112.422 22.0078C112.359 22.2214 112.328 22.4609 112.328 22.7266C112.328 23.138 112.409 23.4688 112.57 23.7188C112.732 23.9688 112.99 24.0938 113.344 24.0938ZM118.234 11.2891H120.211V25.5H118.234V11.2891Z" fill="#DC6DFF"/>
<path d="M10 2H119V-2H10V2ZM127 10V29H131V10H127ZM119 37H10V41H119V37ZM2 29V10H-2V29H2ZM10 37C5.58172 37 2 33.4183 2 29H-2C-2 35.6274 3.37258 41 10 41V37ZM127 29C127 33.4183 123.418 37 119 37V41C125.627 41 131 35.6274 131 29H127ZM119 2C123.418 2 127 5.58172 127 10H131C131 3.37258 125.627 -2 119 -2V2ZM10 -2C3.37258 -2 -2 3.37258 -2 10H2C2 5.58172 5.58172 2 10 2V-2Z" fill="#DC6DFF"/>
</svg>
