<svg width="125" height="39" viewBox="0 0 125 39" fill="none" xmlns="http://www.w3.org/2000/svg">
<path d="M0 10C0 4.47715 4.47715 0 10 0H115C120.523 0 125 4.47715 125 10V29C125 34.5228 120.523 39 115 39H10C4.47715 39 0 34.5228 0 29V10Z" fill="white"/>
<rect x="5" y="5" width="29" height="29" rx="8" fill="#DC6DFF"/>
<path d="M19 30C24.5228 30 29 25.5228 29 20C29 14.4772 24.5228 10 19 10C13.4772 10 9 14.4772 9 20C9 25.5228 13.4772 30 19 30Z" stroke="white" stroke-width="3" stroke-linecap="round" stroke-linejoin="round"/>
<path d="M19 10C18.4106 10 17.8454 10.2341 17.4286 10.6509C17.0119 11.0676 16.7777 11.6329 16.7777 12.2222C16.7777 12.8116 17.0119 13.3768 17.4286 13.7936C17.8454 14.2103 18.4106 14.4444 19 14.4444M15.6666 17.7778H15.6777H15.6666ZM22.3333 17.7778H22.3444H22.3333ZM16.2222 23.3333C16.5843 23.7029 17.0165 23.9965 17.4934 24.1969C17.9704 24.3973 18.4826 24.5006 19 24.5006C19.5173 24.5006 20.0295 24.3973 20.5065 24.1969C20.9835 23.9965 21.4157 23.7029 21.7777 23.3333H16.2222Z" stroke="white" stroke-width="3" stroke-linecap="round" stroke-linejoin="round"/>
<path d="M51.7266 21.0547L49.0391 12.1562H51.0781L52.7109 18.5391H52.8047L54.4219 12.1562H56.4531L53.75 21.0547V25.5H51.7266V21.0547ZM60.2266 25.6172C59.9974 25.6172 59.763 25.599 59.5234 25.5625C59.2891 25.526 59.0599 25.4505 58.8359 25.3359C58.6172 25.2214 58.4089 25.0573 58.2109 24.8438C58.0182 24.6302 57.849 24.349 57.7031 24C57.5573 23.651 57.4427 23.2214 57.3594 22.7109C57.276 22.2005 57.2344 21.5911 57.2344 20.8828V19.1953C57.2344 18.4974 57.276 17.901 57.3594 17.4062C57.4479 16.9062 57.5651 16.487 57.7109 16.1484C57.862 15.8099 58.0365 15.5417 58.2344 15.3438C58.4323 15.1406 58.6406 14.987 58.8594 14.8828C59.0833 14.7734 59.3125 14.7031 59.5469 14.6719C59.7812 14.6354 60.0104 14.6172 60.2344 14.6172C60.4479 14.6172 60.6693 14.6328 60.8984 14.6641C61.1276 14.6953 61.3516 14.763 61.5703 14.8672C61.7891 14.9661 61.9948 15.1172 62.1875 15.3203C62.3854 15.5182 62.5573 15.7865 62.7031 16.125C62.8542 16.4635 62.9714 16.8854 63.0547 17.3906C63.1432 17.8906 63.1875 18.4922 63.1875 19.1953V20.8828C63.1875 21.5807 63.1432 22.1823 63.0547 22.6875C62.9661 23.1927 62.8464 23.6198 62.6953 23.9688C62.5443 24.3177 62.3698 24.6016 62.1719 24.8203C61.974 25.0339 61.7656 25.2005 61.5469 25.3203C61.3281 25.4401 61.1042 25.5182 60.875 25.5547C60.651 25.5964 60.4349 25.6172 60.2266 25.6172ZM60.2422 24.0938C60.4193 24.0938 60.5677 24.0495 60.6875 23.9609C60.8125 23.8672 60.9115 23.7161 60.9844 23.5078C61.0625 23.2995 61.1172 23.026 61.1484 22.6875C61.1849 22.3438 61.2031 21.9193 61.2031 21.4141V18.7656C61.2031 18.2604 61.1849 17.8359 61.1484 17.4922C61.1172 17.1484 61.0625 16.8724 60.9844 16.6641C60.9115 16.4505 60.8125 16.2969 60.6875 16.2031C60.5677 16.1094 60.4193 16.0625 60.2422 16.0625C60.0547 16.0625 59.8958 16.1094 59.7656 16.2031C59.6406 16.2969 59.5365 16.4505 59.4531 16.6641C59.3698 16.8724 59.3099 17.1484 59.2734 17.4922C59.237 17.8359 59.2188 18.2604 59.2188 18.7656V21.4141C59.2188 21.9193 59.237 22.3438 59.2734 22.6875C59.3099 23.026 59.3698 23.2995 59.4531 23.5078C59.5365 23.7161 59.6406 23.8672 59.7656 23.9609C59.8958 24.0495 60.0547 24.0938 60.2422 24.0938ZM64.9531 14.7422H66.9297V22.8281C66.9297 23.3021 67.0026 23.6328 67.1484 23.8203C67.2943 24.0026 67.5078 24.0938 67.7891 24.0938C67.987 24.0938 68.1797 24.0391 68.3672 23.9297C68.5547 23.8203 68.724 23.6641 68.875 23.4609V14.7422H70.8516V25.5H69.3438L69.1484 24.3516H69.1406C68.9844 24.5964 68.8177 24.8021 68.6406 24.9688C68.4688 25.1302 68.2865 25.2604 68.0938 25.3594C67.9062 25.4531 67.7135 25.5208 67.5156 25.5625C67.3177 25.6042 67.1198 25.625 66.9219 25.625C66.2917 25.625 65.8047 25.4062 65.4609 24.9688C65.1224 24.5312 64.9531 23.8698 64.9531 22.9844V14.7422ZM72.9219 14.7422H74.4453L74.625 15.8906V15.8984C74.7812 15.6536 74.9479 15.4505 75.125 15.2891C75.3073 15.1224 75.4948 14.9896 75.6875 14.8906C75.8802 14.7917 76.0755 14.7214 76.2734 14.6797C76.4766 14.638 76.6771 14.6172 76.875 14.6172C77.5052 14.6172 77.9896 14.8385 78.3281 15.2812C78.6719 15.7188 78.8438 16.3776 78.8438 17.2578V25.5H76.8672V17.3281C76.8672 16.8542 76.7943 16.526 76.6484 16.3438C76.5026 16.1562 76.2891 16.0625 76.0078 16.0625C75.8099 16.0625 75.612 16.1276 75.4141 16.2578C75.2214 16.388 75.0495 16.5677 74.8984 16.7969V25.5H72.9219V14.7422ZM82.5 26.2344C82.5 26.6979 82.5859 27.026 82.7578 27.2188C82.9297 27.4115 83.1953 27.5078 83.5547 27.5078C83.7005 27.5078 83.8411 27.4844 83.9766 27.4375C84.112 27.3958 84.2292 27.3151 84.3281 27.1953C84.4323 27.0807 84.5156 26.9193 84.5781 26.7109C84.6406 26.5026 84.6719 26.2344 84.6719 25.9062V24.2109C84.4948 24.4401 84.2656 24.638 83.9844 24.8047C83.7083 24.9661 83.3646 25.0469 82.9531 25.0469C82.8333 25.0469 82.6927 25.0365 82.5312 25.0156C82.3698 24.9896 82.2031 24.9349 82.0312 24.8516C81.8594 24.7682 81.6901 24.6432 81.5234 24.4766C81.3568 24.3047 81.2083 24.0755 81.0781 23.7891C80.9479 23.5026 80.8411 23.1458 80.7578 22.7188C80.6797 22.2865 80.6406 21.7656 80.6406 21.1562V18.3281C80.6406 17.7448 80.6797 17.25 80.7578 16.8438C80.8411 16.4323 80.9479 16.0885 81.0781 15.8125C81.2083 15.5365 81.3568 15.3203 81.5234 15.1641C81.6953 15.0078 81.8672 14.8906 82.0391 14.8125C82.2161 14.7292 82.388 14.6771 82.5547 14.6562C82.7214 14.6354 82.8698 14.625 83 14.625C83.2604 14.625 83.4896 14.6589 83.6875 14.7266C83.8906 14.7943 84.0651 14.8854 84.2109 15C84.362 15.1094 84.4896 15.2344 84.5938 15.375C84.6979 15.5156 84.7865 15.6562 84.8594 15.7969L85.0391 14.7344H86.5781V25.0625C86.5781 25.6615 86.5208 26.2005 86.4062 26.6797C86.2917 27.1641 86.112 27.5755 85.8672 27.9141C85.6224 28.2578 85.3099 28.5208 84.9297 28.7031C84.5547 28.8854 84.1042 28.9766 83.5781 28.9766C83.224 28.9766 82.8906 28.9453 82.5781 28.8828C82.2656 28.8203 81.9922 28.7083 81.7578 28.5469C81.5234 28.3906 81.3385 28.1745 81.2031 27.8984C81.0677 27.6276 81 27.2812 81 26.8594C81 26.7865 81.0078 26.6953 81.0234 26.5859C81.0391 26.4766 81.0651 26.3594 81.1016 26.2344H82.5ZM83.625 23.5156C83.7552 23.5156 83.8698 23.4948 83.9688 23.4531C84.0729 23.4062 84.1641 23.3464 84.2422 23.2734C84.3255 23.2005 84.3958 23.1172 84.4531 23.0234C84.5156 22.9297 84.5677 22.8333 84.6094 22.7344V16.8516C84.5104 16.6328 84.3776 16.4479 84.2109 16.2969C84.0495 16.1406 83.8516 16.0625 83.6172 16.0625C83.4714 16.0625 83.3385 16.0885 83.2188 16.1406C83.099 16.1927 82.9948 16.2917 82.9062 16.4375C82.8177 16.5781 82.7474 16.776 82.6953 17.0312C82.6484 17.2812 82.625 17.6068 82.625 18.0078V21.5469C82.625 21.9479 82.6484 22.276 82.6953 22.5312C82.7474 22.7865 82.8177 22.987 82.9062 23.1328C82.9948 23.2786 83.099 23.3802 83.2188 23.4375C83.3438 23.4896 83.4792 23.5156 83.625 23.5156ZM92.2031 12.1562H94.2266V17.9844H94.2891L96.6016 12.1562H98.6172L96.0391 18.4141L98.9062 25.5H96.7422L94.2891 19.1484H94.2266V25.5H92.2031V12.1562ZM100.992 13.2031C100.628 13.2031 100.339 13.0938 100.125 12.875C99.9167 12.6562 99.8125 12.3359 99.8125 11.9141C99.8125 11.6797 99.8385 11.4844 99.8906 11.3281C99.9479 11.1667 100.026 11.0391 100.125 10.9453C100.229 10.8464 100.354 10.776 100.5 10.7344C100.646 10.6875 100.812 10.6641 101 10.6641C101.391 10.6641 101.688 10.763 101.891 10.9609C102.094 11.1589 102.195 11.4766 102.195 11.9141C102.195 12.3203 102.091 12.638 101.883 12.8672C101.68 13.0911 101.383 13.2031 100.992 13.2031ZM99.9688 14.7422H101.945V25.5H99.9688V14.7422ZM106.078 25.625C105.958 25.625 105.818 25.612 105.656 25.5859C105.495 25.5651 105.328 25.513 105.156 25.4297C104.984 25.3464 104.815 25.2214 104.648 25.0547C104.482 24.888 104.333 24.6615 104.203 24.375C104.073 24.0833 103.966 23.724 103.883 23.2969C103.805 22.8698 103.766 22.3516 103.766 21.7422V18.3281C103.766 17.724 103.807 17.2135 103.891 16.7969C103.979 16.3802 104.094 16.0365 104.234 15.7656C104.375 15.4896 104.531 15.276 104.703 15.125C104.88 14.9688 105.055 14.8542 105.227 14.7812C105.404 14.7083 105.57 14.6641 105.727 14.6484C105.888 14.6328 106.021 14.625 106.125 14.625C106.318 14.625 106.5 14.651 106.672 14.7031C106.844 14.7552 107 14.8255 107.141 14.9141C107.281 14.9974 107.406 15.0938 107.516 15.2031C107.625 15.3073 107.716 15.4141 107.789 15.5234L107.797 15.5156L107.734 14.1562V11.2891H109.703V25.5H108.164L107.992 24.5C107.904 24.6406 107.802 24.7786 107.688 24.9141C107.573 25.0495 107.438 25.1719 107.281 25.2812C107.125 25.3854 106.948 25.4688 106.75 25.5312C106.552 25.5938 106.328 25.625 106.078 25.625ZM106.75 24.0938C106.88 24.0938 106.995 24.0729 107.094 24.0312C107.198 23.9844 107.289 23.9271 107.367 23.8594C107.451 23.7865 107.521 23.7031 107.578 23.6094C107.641 23.5156 107.693 23.4193 107.734 23.3203V16.8516C107.635 16.6328 107.503 16.4479 107.336 16.2969C107.174 16.1406 106.977 16.0625 106.742 16.0625C106.596 16.0625 106.464 16.0885 106.344 16.1406C106.224 16.1927 106.12 16.2917 106.031 16.4375C105.943 16.5781 105.872 16.776 105.82 17.0312C105.773 17.2812 105.75 17.6068 105.75 18.0078V22.1328C105.75 22.5339 105.773 22.862 105.82 23.1172C105.872 23.3724 105.943 23.5729 106.031 23.7188C106.12 23.8594 106.224 23.9583 106.344 24.0156C106.469 24.0677 106.604 24.0938 106.75 24.0938ZM111.312 23.25C111.312 23.0156 111.333 22.7891 111.375 22.5703C111.422 22.3516 111.466 22.1771 111.508 22.0469H112.898C112.898 22.4375 112.917 22.7656 112.953 23.0312C112.995 23.2917 113.06 23.5 113.148 23.6562C113.237 23.8125 113.354 23.9245 113.5 23.9922C113.651 24.0599 113.833 24.0938 114.047 24.0938C114.344 24.0938 114.56 24.0104 114.695 23.8438C114.831 23.6771 114.898 23.4844 114.898 23.2656C114.898 23.151 114.883 23.0417 114.852 22.9375C114.82 22.8333 114.776 22.7292 114.719 22.625C114.661 22.5156 114.591 22.4062 114.508 22.2969C114.424 22.1875 114.331 22.0677 114.227 21.9375L112.781 20.2344C112.594 20 112.411 19.763 112.234 19.5234C112.062 19.2786 111.909 19.0286 111.773 18.7734C111.643 18.513 111.536 18.2422 111.453 17.9609C111.375 17.6797 111.336 17.3828 111.336 17.0703C111.336 16.6536 111.406 16.2917 111.547 15.9844C111.693 15.6771 111.885 15.4219 112.125 15.2188C112.37 15.0156 112.651 14.8646 112.969 14.7656C113.286 14.6667 113.622 14.6172 113.977 14.6172C114.367 14.6172 114.719 14.6641 115.031 14.7578C115.344 14.8516 115.612 14.9922 115.836 15.1797C116.06 15.3672 116.232 15.6016 116.352 15.8828C116.471 16.1589 116.531 16.4818 116.531 16.8516C116.531 17.1016 116.508 17.3438 116.461 17.5781C116.419 17.8125 116.378 18.013 116.336 18.1797H114.969C114.964 17.8255 114.948 17.5156 114.922 17.25C114.896 16.9844 114.846 16.7656 114.773 16.5938C114.706 16.4167 114.609 16.2839 114.484 16.1953C114.365 16.1068 114.206 16.0625 114.008 16.0625C113.836 16.0625 113.693 16.0911 113.578 16.1484C113.464 16.2005 113.37 16.2708 113.297 16.3594C113.229 16.4479 113.18 16.5469 113.148 16.6562C113.122 16.7656 113.109 16.8776 113.109 16.9922C113.109 17.2422 113.169 17.474 113.289 17.6875C113.409 17.901 113.568 18.1328 113.766 18.3828L115.344 20.2344C115.458 20.375 115.591 20.5469 115.742 20.75C115.893 20.9479 116.036 21.1693 116.172 21.4141C116.307 21.6536 116.422 21.9167 116.516 22.2031C116.609 22.4896 116.656 22.7891 116.656 23.1016C116.656 23.4818 116.596 23.8281 116.477 24.1406C116.357 24.4479 116.18 24.7109 115.945 24.9297C115.711 25.1484 115.422 25.3177 115.078 25.4375C114.74 25.5573 114.352 25.6172 113.914 25.6172C113.555 25.6172 113.216 25.5781 112.898 25.5C112.581 25.4167 112.305 25.2839 112.07 25.1016C111.836 24.9141 111.651 24.6693 111.516 24.3672C111.38 24.0651 111.312 23.6927 111.312 23.25Z" fill="#DC6DFF"/>
<path d="M10 2H115V-2H10V2ZM123 10V29H127V10H123ZM115 37H10V41H115V37ZM2 29V10H-2V29H2ZM10 37C5.58172 37 2 33.4183 2 29H-2C-2 35.6274 3.37258 41 10 41V37ZM123 29C123 33.4183 119.418 37 115 37V41C121.627 41 127 35.6274 127 29H123ZM115 2C119.418 2 123 5.58172 123 10H127C127 3.37258 121.627 -2 115 -2V2ZM10 -2C3.37258 -2 -2 3.37258 -2 10H2C2 5.58172 5.58172 2 10 2V-2Z" fill="#DC6DFF"/>
</svg>
